<?xml version="1.0" encoding="UTF-8"?>
<svg id="Capa_2" data-name="Capa 2" xmlns="http://www.w3.org/2000/svg" viewBox="0 0 46.95 33.74">
  <defs>
    <style>
      .cls-1 {
        fill: #ece4d6;
      }

      .cls-2 {
        fill: #f1a65a;
      }
    </style>
  </defs>
  <g id="Capa_1-2" data-name="Capa 1">
    <g>
      <circle class="cls-2" cx="23.53" cy="3.37" r="3.37"/>
      <path class="cls-1" d="M0,30.42s.03-.05.05-.03c.49.61,2.95,3.21,8.13,1.31,5.87-2.16,6.91-8.94,9-13.53,0,0,2.38-6.32,5.3-8.52s4.95-4.05,13.41-4.71c7.16-.55,10.18-3.71,10.94-4.67.05-.06.14-.01.12.06-.33,1.12-1.83,4.75-7.48,6.4-6.73,1.97-9.24,2.38-12.57,4.89-3.34,2.5-4.17,4.17-7.39,10.84-3.22,6.67-6.38,9.41-9.41,10.55S1.18,34.43,0,30.42Z"/>
      <path class="cls-1" d="M28.49,18.16c-1.02-1.16-2.31-3.18-.41-4.52,0,0,2.62-1.37,4.53,2.56,0,0,1.49,2.63.77,7.21-.72,4.58-2.56,7.16-6.02,8.97,0,0-1.64.98-3.58,1.23-.04,0-.05-.05-.02-.06,1.01-.46,5.56-2.71,6.47-6.49.41-1.67.47-3.05.36-4.19-.17-1.76-.96-3.39-2.12-4.72Z"/>
    </g>
  </g>
</svg>